<?xml version="1.0" standalone="no"?>
<!DOCTYPE svg PUBLIC "-//W3C//DTD SVG 20010904//EN"
 "http://www.w3.org/TR/2001/REC-SVG-20010904/DTD/svg10.dtd">
<svg version="1.0" xmlns="http://www.w3.org/2000/svg"
 width="128.000000pt" height="128.000000pt" viewBox="0 0 128.000000 128.000000"
 preserveAspectRatio="xMidYMid meet">
<metadata>
Created by potrace 1.11, written by Peter Selinger 2001-2013
</metadata>
<g transform="translate(0.000000,128.000000) scale(0.100000,-0.100000)"
fill="#000000" stroke="none">
<path d="M361 1042 l-264 -137 -48 -130 c-27 -71 -49 -133 -49 -137 0 -4 22
-19 50 -33 l49 -25 3 -112 3 -112 267 -136 266 -135 106 52 106 53 0 55 c0 30
2 55 5 55 3 0 29 -12 57 -26 l51 -26 101 53 c56 29 104 57 108 63 4 6 8 57 8
114 l0 103 45 20 c24 11 46 23 49 27 3 5 -18 70 -46 144 l-50 137 -263 135
c-145 75 -269 136 -277 136 -7 0 -132 -62 -277 -138z m259 -157 c0 -129 -3
-235 -7 -235 -17 0 -452 226 -450 233 2 8 434 235 450 236 4 1 7 -105 7 -234z
m492 -7 c-9 -9 -437 -228 -445 -228 -4 0 -7 106 -7 236 l0 235 229 -118 c127
-65 227 -121 223 -125z m-763 -149 c119 -61 219 -114 224 -118 8 -8 -56 -174
-70 -178 -13 -5 -443 216 -443 227 0 14 62 180 68 180 3 0 102 -50 221 -111z
m839 23 c18 -48 32 -90 32 -94 0 -13 -442 -230 -451 -221 -19 20 -69 167 -60
176 9 9 431 226 441 227 3 0 20 -40 38 -88z m-483 -288 c37 -94 38 -96 66 -90
l29 6 0 -83 0 -83 -65 -32 c-36 -18 -68 -32 -70 -32 -3 0 -5 92 -5 205 0 113
2 205 4 205 2 0 21 -43 41 -96z m-171 -94 c6 6 25 48 43 93 l32 82 0 -192 c1
-106 -2 -193 -6 -193 -5 0 -107 52 -228 114 l-220 114 -3 82 -3 82 187 -97
c140 -73 189 -94 198 -85z m596 97 l0 -83 -55 -27 c-31 -15 -58 -27 -60 -27
-3 0 -5 37 -5 83 l0 83 53 26 c28 15 55 27 60 27 4 1 7 -36 7 -82z m-170 -82
c0 -41 -2 -75 -5 -75 -3 0 -28 11 -55 25 -40 20 -50 30 -50 50 0 19 10 30 48
49 26 14 50 25 55 26 4 0 7 -34 7 -75z"/>
</g>
</svg>
